<svg width="20" height="20" viewBox="0 0 20 20" fill="none" xmlns="http://www.w3.org/2000/svg">
<g id="ep:arrow-left">
<path id="Vector" d="M11.9025 2.9175L5.425 9.5625C5.31123 9.67922 5.24756 9.83576 5.24756 9.99875C5.24756 10.1617 5.31123 10.3183 5.425 10.435L11.9025 17.0825C11.9555 17.1369 12.0189 17.1802 12.0888 17.2097C12.1588 17.2393 12.234 17.2545 12.31 17.2545C12.386 17.2545 12.4612 17.2393 12.5312 17.2097C12.6011 17.1802 12.6645 17.1369 12.7175 17.0825C12.8265 16.9709 12.8876 16.821 12.8876 16.665C12.8876 16.509 12.8265 16.3591 12.7175 16.2475L6.62625 9.99875L12.7175 3.75125C12.8262 3.63969 12.887 3.49011 12.887 3.33438C12.887 3.17864 12.8262 3.02907 12.7175 2.9175C12.6645 2.86307 12.6011 2.81981 12.5312 2.79027C12.4612 2.76073 12.386 2.74551 12.31 2.74551C12.234 2.74551 12.1588 2.76073 12.0888 2.79027C12.0189 2.81981 11.9555 2.86307 11.9025 2.9175Z" fill="white"/>
</g>
</svg>
