<svg width="20" height="20" viewBox="0 0 20 20" fill="none" xmlns="http://www.w3.org/2000/svg">
<g id="ep:arrow-right">
<path id="Vector" d="M6.65749 2.91625C6.54847 3.02787 6.48743 3.17772 6.48743 3.33375C6.48743 3.48979 6.54847 3.63963 6.65749 3.75125L12.7487 10L6.65749 16.2475C6.54847 16.3591 6.48743 16.509 6.48743 16.665C6.48743 16.821 6.54847 16.9709 6.65749 17.0825C6.71049 17.1369 6.77385 17.1802 6.84384 17.2097C6.91383 17.2393 6.98903 17.2545 7.06499 17.2545C7.14096 17.2545 7.21616 17.2393 7.28615 17.2097C7.35614 17.1802 7.4195 17.1369 7.47249 17.0825L13.95 10.4363C14.0638 10.3195 14.1274 10.163 14.1274 10C14.1274 9.83701 14.0638 9.68047 13.95 9.56375L7.47249 2.9175C7.4195 2.86307 7.35614 2.81981 7.28615 2.79027C7.21616 2.76073 7.14096 2.74551 7.06499 2.74551C6.98903 2.74551 6.91383 2.76073 6.84384 2.79027C6.77385 2.81981 6.71049 2.86307 6.65749 2.9175V2.91625Z" fill="white"/>
</g>
</svg>
