<svg width="16" height="16" viewBox="0 0 16 16" fill="none" xmlns="http://www.w3.org/2000/svg">
<g id="akar-icons:discord-fill" clip-path="url(#clip0_854_1541)">
<path id="Vector" d="M13.5447 2.99469C12.5247 2.53469 11.4313 2.19469 10.288 2.00136C10.2778 1.9994 10.2673 2.00066 10.2579 2.00496C10.2484 2.00926 10.2406 2.01639 10.2353 2.02536C10.0953 2.27136 9.93935 2.59202 9.83002 2.84536C8.61741 2.66418 7.38462 2.66418 6.17202 2.84536C6.05024 2.5646 5.91291 2.29084 5.76068 2.02536C5.75552 2.01628 5.74772 2.00899 5.73831 2.00446C5.7289 1.99994 5.71833 1.99839 5.70802 2.00002C4.56535 2.19336 3.47202 2.53336 2.45135 2.99402C2.44257 2.99771 2.43512 3.00399 2.43002 3.01202C0.355349 6.06202 -0.213318 9.03669 0.0660152 11.974C0.0667925 11.9812 0.0690256 11.9882 0.0725785 11.9945C0.0761315 12.0008 0.0809299 12.0063 0.0866819 12.0107C1.29761 12.8923 2.64824 13.5639 4.08202 13.9974C4.09201 14.0004 4.1027 14.0004 4.11269 13.9973C4.12268 13.9942 4.13151 13.9882 4.13802 13.98C4.44655 13.5674 4.71995 13.1296 4.95535 12.6714C4.95862 12.6651 4.9605 12.6582 4.96087 12.6511C4.96124 12.6441 4.96009 12.637 4.9575 12.6305C4.95491 12.6239 4.95093 12.6179 4.94585 12.613C4.94076 12.6081 4.93468 12.6044 4.92802 12.602C4.49735 12.4398 4.08007 12.2441 3.68002 12.0167C3.67283 12.0126 3.66677 12.0068 3.66239 11.9997C3.658 11.9927 3.65543 11.9847 3.6549 11.9765C3.65438 11.9682 3.65591 11.9599 3.65936 11.9524C3.66281 11.9449 3.66808 11.9383 3.67468 11.9334C3.75868 11.8714 3.84268 11.8067 3.92268 11.742C3.92988 11.7362 3.93856 11.7325 3.94774 11.7313C3.95692 11.7302 3.96625 11.7315 3.97468 11.7354C6.59268 12.9114 9.42802 12.9114 12.0153 11.7354C12.0238 11.7313 12.0332 11.7297 12.0425 11.7308C12.0519 11.7319 12.0607 11.7355 12.068 11.7414C12.148 11.8067 12.2313 11.8714 12.316 11.9334C12.3227 11.9382 12.328 11.9447 12.3316 11.9522C12.3352 11.9596 12.3368 11.9678 12.3364 11.9761C12.336 11.9844 12.3336 11.9924 12.3293 11.9995C12.3251 12.0066 12.3191 12.0125 12.312 12.0167C11.9133 12.246 11.4987 12.44 11.0633 12.6014C11.0567 12.6038 11.0506 12.6076 11.0455 12.6126C11.0404 12.6175 11.0364 12.6235 11.0338 12.6302C11.0312 12.6368 11.0301 12.6439 11.0305 12.651C11.0309 12.6581 11.0327 12.665 11.036 12.6714C11.276 13.1294 11.5507 13.5654 11.8527 13.9794C11.859 13.9879 11.8677 13.9942 11.8777 13.9975C11.8878 14.0009 11.8986 14.0011 11.9087 13.998C13.3449 13.5658 14.6978 12.8939 15.91 12.0107C15.9159 12.0066 15.9209 12.0012 15.9246 11.995C15.9283 11.9888 15.9306 11.9819 15.9313 11.9747C16.2647 8.57869 15.3727 5.62802 13.5653 3.01336C13.5609 3.00486 13.5536 2.99824 13.5447 2.99469ZM5.34668 10.1854C4.55868 10.1854 3.90868 9.47269 3.90868 8.59869C3.90868 7.72402 4.54602 7.01202 5.34668 7.01202C6.15335 7.01202 6.79735 7.73002 6.78468 8.59869C6.78468 9.47336 6.14735 10.1854 5.34668 10.1854ZM10.6633 10.1854C9.87468 10.1854 9.22535 9.47269 9.22535 8.59869C9.22535 7.72402 9.86202 7.01202 10.6633 7.01202C11.47 7.01202 12.114 7.73002 12.1013 8.59869C12.1013 9.47336 11.4707 10.1854 10.6633 10.1854Z" fill="white"/>
</g>
<defs>
<clipPath id="clip0_854_1541">
<rect width="16" height="16" fill="white"/>
</clipPath>
</defs>
</svg>
