<svg width="14" height="14" viewBox="0 0 14 14" fill="none" xmlns="http://www.w3.org/2000/svg">
<g id="clarity:email-solid" clip-path="url(#clip0_866_26)">
<path id="Vector" d="M12.5728 2.33332C12.5198 2.32786 12.4664 2.32786 12.4134 2.33332H1.52447C1.45468 2.3344 1.38536 2.34486 1.31836 2.36443L6.9378 7.96054L12.5728 2.33332Z" fill="black" fill-opacity="0.6"/>
<path id="Vector_2" d="M13.1484 2.8739L7.48617 8.51279C7.34044 8.65765 7.14331 8.73896 6.93783 8.73896C6.73235 8.73896 6.53523 8.65765 6.3895 8.51279L0.777833 2.91668C0.760581 2.98008 0.751434 3.04542 0.75061 3.11112V10.8889C0.75061 11.0952 0.832555 11.293 0.978416 11.4389C1.12428 11.5847 1.32211 11.6667 1.52839 11.6667H12.4173C12.6236 11.6667 12.8214 11.5847 12.9672 11.4389C13.1131 11.293 13.1951 11.0952 13.1951 10.8889V3.11112C13.192 3.0301 13.1762 2.95006 13.1484 2.8739ZM2.06117 10.8889H1.52061V10.3328L4.34783 7.5289L4.89617 8.07724L2.06117 10.8889ZM12.4095 10.8889H11.8651L9.03005 8.07724L9.57839 7.5289L12.4056 10.3328L12.4095 10.8889Z" fill="black" fill-opacity="0.6"/>
</g>
<defs>
<clipPath id="clip0_866_26">
<rect width="14" height="14" fill="white"/>
</clipPath>
</defs>
</svg>
