<svg width="16" height="16" viewBox="0 0 16 16" fill="none" xmlns="http://www.w3.org/2000/svg">
<g id="akar-icons:instagram-fill" clip-path="url(#clip0_854_1549)">
<path id="Vector" fill-rule="evenodd" clip-rule="evenodd" d="M4.97666 0.710687C5.75866 0.674687 6.00799 0.666687 7.99999 0.666687C9.99199 0.666687 10.2413 0.675354 11.0227 0.710687C11.804 0.74602 12.3373 0.870687 12.804 1.05135C13.2927 1.23602 13.736 1.52469 14.1027 1.89802C14.476 2.26402 14.764 2.70669 14.948 3.19602C15.1293 3.66269 15.2533 4.19602 15.2893 4.97602C15.3253 5.75935 15.3333 6.00869 15.3333 8.00002C15.3333 9.99202 15.3247 10.2414 15.2893 11.0234C15.254 11.8034 15.1293 12.3367 14.948 12.8034C14.764 13.2928 14.4755 13.7362 14.1027 14.1027C13.736 14.476 13.2927 14.764 12.804 14.948C12.3373 15.1294 11.804 15.2534 11.024 15.2894C10.2413 15.3254 9.99199 15.3334 7.99999 15.3334C6.00799 15.3334 5.75866 15.3247 4.97666 15.2894C4.19666 15.254 3.66332 15.1294 3.19666 14.948C2.70727 14.764 2.26387 14.4755 1.89732 14.1027C1.52424 13.7365 1.23553 13.2933 1.05132 12.804C0.870657 12.3374 0.746656 11.804 0.710656 11.024C0.674656 10.2407 0.666656 9.99135 0.666656 8.00002C0.666656 6.00802 0.675323 5.75869 0.710656 4.97735C0.74599 4.19602 0.870657 3.66269 1.05132 3.19602C1.23581 2.70674 1.52474 2.26356 1.89799 1.89735C2.26402 1.52435 2.70697 1.23565 3.19599 1.05135C3.66266 0.870687 4.19599 0.746687 4.97599 0.710687H4.97666ZM10.9633 2.03069C10.19 1.99535 9.95799 1.98802 7.99999 1.98802C6.04199 1.98802 5.80999 1.99535 5.03666 2.03069C4.32132 2.06335 3.93332 2.18269 3.67466 2.28335C3.33266 2.41669 3.08799 2.57469 2.83132 2.83135C2.58802 3.06805 2.40078 3.35621 2.28332 3.67469C2.18266 3.93335 2.06332 4.32135 2.03066 5.03669C1.99532 5.81002 1.98799 6.04202 1.98799 8.00002C1.98799 9.95802 1.99532 10.19 2.03066 10.9634C2.06332 11.6787 2.18266 12.0667 2.28332 12.3254C2.40066 12.6434 2.58799 12.932 2.83132 13.1687C3.06799 13.412 3.35666 13.5994 3.67466 13.7167C3.93332 13.8174 4.32132 13.9367 5.03666 13.9694C5.80999 14.0047 6.04132 14.012 7.99999 14.012C9.95866 14.012 10.19 14.0047 10.9633 13.9694C11.6787 13.9367 12.0667 13.8174 12.3253 13.7167C12.6673 13.5834 12.912 13.4254 13.1687 13.1687C13.412 12.932 13.5993 12.6434 13.7167 12.3254C13.8173 12.0667 13.9367 11.6787 13.9693 10.9634C14.0047 10.19 14.012 9.95802 14.012 8.00002C14.012 6.04202 14.0047 5.81002 13.9693 5.03669C13.9367 4.32135 13.8173 3.93335 13.7167 3.67469C13.5833 3.33269 13.4253 3.08802 13.1687 2.83135C12.9319 2.58807 12.6438 2.40083 12.3253 2.28335C12.0667 2.18269 11.6787 2.06335 10.9633 2.03069ZM7.06332 10.2607C7.58643 10.4784 8.16891 10.5078 8.71128 10.3438C9.25364 10.1798 9.72225 9.83263 10.0371 9.36152C10.3519 8.8904 10.4934 8.3246 10.4374 7.76076C10.3813 7.19691 10.1313 6.67 9.72999 6.27002C9.47415 6.01434 9.1648 5.81856 8.82421 5.69678C8.48363 5.57501 8.12028 5.53026 7.76032 5.56576C7.40036 5.60127 7.05276 5.71614 6.74253 5.90211C6.43229 6.08808 6.16715 6.34052 5.96619 6.64125C5.76523 6.94199 5.63345 7.28355 5.58033 7.64133C5.52722 7.99911 5.55409 8.36422 5.65902 8.71037C5.76394 9.05651 5.94431 9.37509 6.18714 9.64317C6.42996 9.91124 6.72921 10.1221 7.06332 10.2607ZM5.33466 5.33469C5.68467 4.98467 6.1002 4.70702 6.55752 4.51759C7.01484 4.32817 7.50499 4.23067 7.99999 4.23067C8.49499 4.23067 8.98514 4.32817 9.44246 4.51759C9.89978 4.70702 10.3153 4.98467 10.6653 5.33469C11.0153 5.6847 11.293 6.10023 11.4824 6.55755C11.6718 7.01487 11.7693 7.50502 11.7693 8.00002C11.7693 8.49502 11.6718 8.98517 11.4824 9.44249C11.293 9.89981 11.0153 10.3153 10.6653 10.6654C9.95843 11.3722 8.99968 11.7694 7.99999 11.7694C7.0003 11.7694 6.04155 11.3722 5.33466 10.6654C4.62777 9.95846 4.23064 8.99971 4.23064 8.00002C4.23064 7.00033 4.62777 6.04158 5.33466 5.33469ZM12.6053 4.79202C12.6921 4.7102 12.7615 4.61181 12.8095 4.50267C12.8576 4.39353 12.8832 4.27587 12.8849 4.15664C12.8867 4.03741 12.8645 3.91905 12.8196 3.80856C12.7748 3.69807 12.7083 3.59769 12.624 3.51338C12.5396 3.42907 12.4393 3.36253 12.3288 3.3177C12.2183 3.27287 12.0999 3.25067 11.9807 3.25241C11.8615 3.25415 11.7438 3.27979 11.6347 3.32782C11.5255 3.37585 11.4271 3.44528 11.3453 3.53202C11.1862 3.70071 11.0991 3.92477 11.1025 4.15664C11.1058 4.38851 11.1995 4.60994 11.3634 4.77392C11.5274 4.93789 11.7488 5.03151 11.9807 5.03489C12.2126 5.03827 12.4366 4.95115 12.6053 4.79202Z" fill="white"/>
</g>
<defs>
<clipPath id="clip0_854_1549">
<rect width="16" height="16" fill="white"/>
</clipPath>
</defs>
</svg>
