<svg width="12" height="12" viewBox="0 0 12 12" fill="none" xmlns="http://www.w3.org/2000/svg">
<g id="fa-solid:key" clip-path="url(#clip0_852_1063)">
<path id="Vector" d="M11.3824 3.80877C11.3824 5.91228 9.76638 7.6175 7.77298 7.6175C7.54288 7.6175 7.31791 7.59452 7.09977 7.55108L6.60734 8.13568C6.56116 8.1905 6.5045 8.23438 6.4411 8.26443C6.37769 8.29447 6.30897 8.31 6.23947 8.31H5.4761V9.17562C5.4761 9.46247 5.25575 9.695 4.98392 9.695H4.1636V10.5606C4.1636 10.8475 3.94325 11.08 3.67142 11.08H1.37454C1.10271 11.08 0.882355 10.8475 0.882355 10.5606V8.87138C0.882355 8.73364 0.934219 8.60152 1.0265 8.50412L4.34471 5.00262C4.22734 4.62707 4.1636 4.22579 4.1636 3.80875C4.1636 1.70524 5.77956 2.16408e-05 7.77296 2.06724e-10C9.77225 -2.16404e-05 11.3824 1.69903 11.3824 3.80877ZM7.77298 2.77C7.77298 3.34369 8.21369 3.80875 8.75735 3.80875C9.30102 3.80875 9.74173 3.34369 9.74173 2.77C9.74173 2.19631 9.30102 1.73125 8.75735 1.73125C8.21369 1.73125 7.77298 2.19631 7.77298 2.77Z" fill="black" fill-opacity="0.6"/>
</g>
<defs>
<clipPath id="clip0_852_1063">
<rect width="10.5" height="11.08" fill="white" transform="translate(0.882355)"/>
</clipPath>
</defs>
</svg>
