<svg width="16" height="16" viewBox="0 0 16 16" fill="none" xmlns="http://www.w3.org/2000/svg">
<g id="akar-icons:twitter-fill" clip-path="url(#clip0_854_1556)">
<path id="Vector" d="M16.1373 3.45968C15.5807 3.70635 14.9827 3.87301 14.354 3.94835C15.0027 3.56021 15.488 2.94932 15.7193 2.22968C15.1099 2.59167 14.4429 2.84648 13.7473 2.98301C13.2796 2.48359 12.66 2.15256 11.9849 2.04133C11.3097 1.93009 10.6167 2.04487 10.0135 2.36785C9.41025 2.69082 8.93052 3.20392 8.64877 3.82748C8.36702 4.45104 8.29902 5.15018 8.45533 5.81635C7.22046 5.75434 6.01242 5.43338 4.90962 4.87428C3.80681 4.31519 2.83389 3.53045 2.054 2.57101C1.78733 3.03101 1.634 3.56435 1.634 4.13235C1.6337 4.64368 1.75962 5.14717 2.00059 5.59817C2.24155 6.04916 2.59011 6.4337 3.01533 6.71768C2.52218 6.70199 2.03992 6.56873 1.60867 6.32901V6.36901C1.60862 7.08617 1.85669 7.78126 2.31079 8.33634C2.76489 8.89142 3.39705 9.2723 4.1 9.41435C3.64252 9.53816 3.16289 9.55639 2.69733 9.46768C2.89566 10.0848 3.282 10.6244 3.80224 11.011C4.32249 11.3976 4.95061 11.6118 5.59867 11.6237C4.49856 12.4873 3.13993 12.9557 1.74133 12.9537C1.49359 12.9537 1.24605 12.9393 1 12.9103C2.41965 13.8231 4.07223 14.3076 5.76 14.3057C11.4733 14.3057 14.5967 9.57368 14.5967 5.46968C14.5967 5.33635 14.5933 5.20168 14.5873 5.06835C15.1949 4.62899 15.7193 4.08494 16.136 3.46168L16.1373 3.45968Z" fill="white"/>
</g>
<defs>
<clipPath id="clip0_854_1556">
<rect width="16" height="16" fill="white"/>
</clipPath>
</defs>
</svg>
